<svg width="124" height="27" viewBox="0 0 124 27" fill="none" xmlns="http://www.w3.org/2000/svg">
<path d="M0.116504 26V0.799999H9.8465C10.0915 0.799999 10.3657 0.811666 10.669 0.834999C10.984 0.846666 11.299 0.881666 11.614 0.939999C12.9323 1.13833 14.0465 1.59917 14.9565 2.3225C15.8782 3.03417 16.5723 3.9325 17.039 5.0175C17.5173 6.1025 17.7565 7.30417 17.7565 8.6225C17.7565 9.92917 17.5173 11.125 17.039 12.21C16.5607 13.295 15.8607 14.1992 14.939 14.9225C14.029 15.6342 12.9207 16.0892 11.614 16.2875C11.299 16.3342 10.984 16.3692 10.669 16.3925C10.3657 16.4158 10.0915 16.4275 9.8465 16.4275H2.689V26H0.116504ZM2.689 13.9775H9.7765C9.9865 13.9775 10.2315 13.9658 10.5115 13.9425C10.7915 13.9192 11.0657 13.8783 11.334 13.82C12.1973 13.6333 12.9032 13.2775 13.4515 12.7525C14.0115 12.2275 14.4257 11.6033 14.694 10.88C14.974 10.1567 15.114 9.40417 15.114 8.6225C15.114 7.84083 14.974 7.08833 14.694 6.365C14.4257 5.63 14.0115 5 13.4515 4.475C12.9032 3.95 12.1973 3.59417 11.334 3.4075C11.0657 3.34917 10.7915 3.31417 10.5115 3.3025C10.2315 3.27917 9.9865 3.2675 9.7765 3.2675H2.689V13.9775ZM17.7464 26L26.4264 0.799999H29.8389L38.5189 26H35.8414L27.5989 2.235H28.6139L20.4239 26H17.7464ZM21.6139 19.8925V17.4775H34.6339V19.8925H21.6139ZM45.6231 26L36.9431 0.799999H39.6206L47.3031 23.0775L55.0381 0.799999H57.7156L49.0356 26H45.6231ZM60.3411 26V0.799999H76.0911V3.2675H62.9136V11.9825H73.9911V14.45H62.9136V23.5325H76.0911V26H60.3411ZM80.3021 26V0.799999H90.0321C90.2771 0.799999 90.5512 0.811666 90.8546 0.834999C91.1696 0.846666 91.4846 0.881666 91.7996 0.939999C93.1179 1.13833 94.2321 1.59917 95.1421 2.3225C96.0637 3.03417 96.7579 3.9325 97.2246 5.0175C97.7029 6.1025 97.9421 7.30417 97.9421 8.6225C97.9421 9.92917 97.7029 11.125 97.2246 12.21C96.7462 13.295 96.0462 14.1992 95.1246 14.9225C94.2146 15.6342 93.1062 16.0892 91.7996 16.2875C91.4846 16.3342 91.1696 16.3692 90.8546 16.3925C90.5512 16.4158 90.2771 16.4275 90.0321 16.4275H82.8746V26H80.3021ZM82.8746 13.9775H89.9621C90.1721 13.9775 90.4171 13.9658 90.6971 13.9425C90.9771 13.9192 91.2512 13.8783 91.5196 13.82C92.3829 13.6333 93.0887 13.2775 93.6371 12.7525C94.1971 12.2275 94.6112 11.6033 94.8796 10.88C95.1596 10.1567 95.2996 9.40417 95.2996 8.6225C95.2996 7.84083 95.1596 7.08833 94.8796 6.365C94.6112 5.63 94.1971 5 93.6371 4.475C93.0887 3.95 92.3829 3.59417 91.5196 3.4075C91.2512 3.34917 90.9771 3.31417 90.6971 3.3025C90.4171 3.27917 90.1721 3.2675 89.9621 3.2675H82.8746V13.9775ZM111.628 26.525C109.119 26.525 107.002 25.9708 105.275 24.8625C103.548 23.7425 102.242 22.1967 101.355 20.225C100.468 18.2533 100.025 15.9783 100.025 13.4C100.025 10.8217 100.468 8.54667 101.355 6.575C102.242 4.60333 103.548 3.06333 105.275 1.955C107.002 0.834999 109.119 0.274999 111.628 0.274999C114.148 0.274999 116.265 0.834999 117.98 1.955C119.707 3.06333 121.013 4.60333 121.9 6.575C122.798 8.54667 123.248 10.8217 123.248 13.4C123.248 15.9783 122.798 18.2533 121.9 20.225C121.013 22.1967 119.707 23.7425 117.98 24.8625C116.265 25.9708 114.148 26.525 111.628 26.525ZM111.628 24.0575C113.599 24.0575 115.244 23.6083 116.563 22.71C117.881 21.8117 118.867 20.5633 119.52 18.965C120.185 17.355 120.518 15.5 120.518 13.4C120.518 11.3 120.185 9.45083 119.52 7.8525C118.867 6.25417 117.881 5.00583 116.563 4.1075C115.244 3.20917 113.599 2.75417 111.628 2.7425C109.656 2.7425 108.017 3.19166 106.71 4.09C105.403 4.98833 104.418 6.2425 103.753 7.8525C103.099 9.45083 102.767 11.3 102.755 13.4C102.743 15.5 103.064 17.3492 103.718 18.9475C104.383 20.5342 105.374 21.7825 106.693 22.6925C108.011 23.5908 109.656 24.0458 111.628 24.0575Z" fill="white"/>
</svg>
